<svg width="16" height="16" viewBox="0 0 16 16" fill="none" xmlns="http://www.w3.org/2000/svg">
<g clip-path="url(#clip0_222_9)">
<mask id="mask0_222_9" style="mask-type:luminance" maskUnits="userSpaceOnUse" x="0" y="0" width="16" height="16">
<path d="M16 0H0V16H16V0Z" fill="white"/>
</mask>
<g mask="url(#mask0_222_9)">
<path d="M7.27182 10.8465C7.27182 11.2896 7.19498 11.6952 7.04132 12.0633C6.89125 12.4278 6.67861 12.7422 6.40346 13.0067C6.13187 13.2747 5.80847 13.4873 5.43328 13.6445C5.06163 13.8017 4.65781 13.8929 4.22186 13.9179C3.71801 13.9501 3.27489 13.8839 2.89251 13.7196C2.51374 13.5552 2.1957 13.3193 1.93841 13.012C1.67755 12.7047 1.47922 12.3384 1.34343 11.9132C1.20763 11.4879 1.13438 11.0269 1.12366 10.5302L2.25466 10.4069C2.24394 10.7321 2.26181 11.0162 2.30826 11.2592C2.35829 11.5022 2.42798 11.7113 2.51731 11.8864C2.60308 12.0615 2.70492 12.2062 2.82283 12.3206C2.94076 12.4349 3.06226 12.5278 3.18735 12.5993C3.4875 12.7672 3.82342 12.8494 4.19505 12.8458C4.47736 12.8244 4.72214 12.7708 4.9294 12.685C5.14023 12.6028 5.31891 12.4974 5.46541 12.3688C5.61194 12.2366 5.73343 12.0883 5.82993 11.9239C5.92283 11.7631 5.99967 11.5862 6.0604 11.3932C6.114 11.2038 6.15152 11.0091 6.17298 10.809C6.19441 10.6089 6.20515 10.4087 6.20515 10.2086C6.20515 10.105 6.20333 9.99065 6.19977 9.86558C6.19977 9.74049 6.19798 9.6047 6.19441 9.4582C6.18368 9.16874 6.17298 8.86499 6.16225 8.54697C6.15152 8.22892 6.13725 7.91268 6.11938 7.59819C6.11222 7.44096 6.1033 7.29268 6.09257 7.15329C6.08543 7.01036 6.07827 6.87635 6.07113 6.75129C6.06397 6.63693 6.05505 6.51543 6.04432 6.3868C6.03362 6.25814 6.02289 6.14916 6.01216 6.05983C6.00502 5.97047 5.99607 5.92582 5.98537 5.92582L7.14854 5.90439C7.15568 5.91152 7.1646 5.99729 7.17533 6.16168C7.18249 6.32961 7.18963 6.55117 7.19676 6.82632C7.20749 7.09791 7.21822 7.4088 7.22893 7.75902C7.23249 7.93411 7.23609 8.11099 7.23966 8.28968C7.24322 8.46834 7.24679 8.64881 7.25039 8.83104C7.25752 9.19913 7.26287 9.55826 7.26644 9.90845C7.27004 10.2586 7.27182 10.5713 7.27182 10.8465Z" fill="#FEDA4E"/>
<path d="M7.65686 2.63464H11.3893C11.9528 2.63464 12.4395 2.68587 12.8493 2.78833C13.2665 2.88348 13.6104 3.02251 13.8812 3.20548C14.152 3.38113 14.3533 3.59335 14.485 3.84219C14.6167 4.09103 14.6826 4.36547 14.6826 4.66552C14.6826 5.05339 14.5728 5.39005 14.3533 5.67547C14.1337 5.96089 13.8044 6.17311 13.3653 6.31217C13.9142 6.42195 14.3423 6.63785 14.6497 6.95986C14.9644 7.27456 15.1217 7.68074 15.1217 8.17838C15.1217 8.83704 14.8473 9.36032 14.2984 9.74819C13.7568 10.1288 12.8969 10.319 11.7186 10.319H7.65686V2.63464ZM9.24863 6.80617V9.49571H11.7186C12.2675 9.49571 12.6883 9.38593 12.981 9.16638C13.2738 8.94682 13.4202 8.61749 13.4202 8.17838C13.4202 7.70999 13.2738 7.36603 12.981 7.14648C12.6883 6.9196 12.2675 6.80617 11.7186 6.80617H9.24863ZM11.3893 5.98284C12.4505 5.98284 12.981 5.54373 12.981 4.66552C12.981 4.27765 12.8457 3.98125 12.5749 3.77632C12.3114 3.5641 11.9162 3.45797 11.3893 3.45797H9.24863V5.98284H11.3893Z" fill="#FEDA4E"/>
</g>
</g>
<defs>
<clipPath id="clip0_222_9">
<rect width="16" height="16" fill="white"/>
</clipPath>
</defs>
</svg>
