<svg width="583" height="583" viewBox="0 0 583 583" fill="none" xmlns="http://www.w3.org/2000/svg">
<g clip-path="url(#clip0_222_2)">
<g clip-path="url(#clip1_222_2)">
<mask id="mask0_222_2" style="mask-type:luminance" maskUnits="userSpaceOnUse" x="0" y="0" width="583" height="583">
<path d="M583 0H0V583H583V0Z" fill="white"/>
</mask>
<g mask="url(#mask0_222_2)">
<path d="M264.969 395.219C264.969 411.365 262.169 426.143 256.57 439.555C251.102 452.836 243.354 464.294 233.328 473.93C223.432 483.695 211.648 491.443 197.977 497.172C184.435 502.901 169.721 506.221 153.836 507.133C135.477 508.305 119.331 505.896 105.398 499.906C91.5964 493.917 80.0078 485.323 70.6328 474.125C61.1276 462.927 53.901 449.581 48.9531 434.086C44.0052 418.591 41.3359 401.794 40.9453 383.695L82.1562 379.203C81.7656 391.052 82.4167 401.404 84.1094 410.258C85.9323 419.112 88.4714 426.729 91.7266 433.109C94.8516 439.49 98.5625 444.763 102.859 448.93C107.156 453.096 111.583 456.482 116.141 459.086C127.078 465.206 139.318 468.201 152.859 468.07C163.146 467.289 172.065 465.336 179.617 462.211C187.299 459.216 193.81 455.375 199.148 450.688C204.487 445.87 208.914 440.466 212.43 434.477C215.815 428.617 218.615 422.172 220.828 415.141C222.781 408.24 224.148 401.143 224.93 393.852C225.711 386.56 226.102 379.268 226.102 371.977C226.102 368.201 226.036 364.034 225.906 359.477C225.906 354.919 225.841 349.971 225.711 344.633C225.32 334.086 224.93 323.018 224.539 311.43C224.148 299.841 223.628 288.318 222.977 276.859C222.716 271.13 222.391 265.727 222 260.648C221.74 255.44 221.479 250.557 221.219 246C220.958 241.833 220.633 237.406 220.242 232.719C219.852 228.031 219.461 224.06 219.07 220.805C218.81 217.549 218.484 215.922 218.094 215.922L260.477 215.141C260.737 215.401 261.062 218.526 261.453 224.516C261.714 230.635 261.974 238.708 262.234 248.734C262.625 258.63 263.016 269.958 263.406 282.719C263.536 289.099 263.667 295.544 263.797 302.055C263.927 308.565 264.057 315.141 264.188 321.781C264.448 335.193 264.643 348.279 264.773 361.039C264.904 373.799 264.969 385.193 264.969 395.219Z" fill="#202020"/>
<path d="M279 96H415C435.533 96 453.267 97.8666 468.2 101.6C483.4 105.067 495.933 110.133 505.8 116.8C515.667 123.2 523 130.933 527.8 140C532.6 149.067 535 159.067 535 170C535 184.133 531 196.4 523 206.8C515 217.2 503 224.933 487 230C507 234 522.6 241.867 533.8 253.6C545.267 265.067 551 279.867 551 298C551 322 541 341.067 521 355.2C501.267 369.067 469.933 376 427 376H279V96ZM337 248V346H427C447 346 462.333 342 473 334C483.667 326 489 314 489 298C489 280.933 483.667 268.4 473 260.4C462.333 252.133 447 248 427 248H337ZM415 218C453.667 218 473 202 473 170C473 155.867 468.067 145.067 458.2 137.6C448.6 129.867 434.2 126 415 126H337V218H415Z" fill="#202020"/>
</g>
</g>
</g>
<defs>
<clipPath id="clip0_222_2">
<rect width="583" height="583" fill="white"/>
</clipPath>
<clipPath id="clip1_222_2">
<rect width="583" height="583" fill="white"/>
</clipPath>
</defs>
</svg>
